<?xml version="1.0" encoding="UTF-8"?>
<svg id="Layer_1" data-name="Layer 1" xmlns="http://www.w3.org/2000/svg" viewBox="0 0 1182.12 1093.9">
  <defs>
    <style>
      /* 1. BRAND ORANGE: Soft Tech Orange */
      .cls-1 {
        fill: #fa7d43;
      }

      /* 2. PRIMARY DARK: Deep Gunmetal */
      .cls-2 {
        fill: #1f2937;
      }
      
      /* 3. DARK MODE: Switches deep gunmetal to soft white for visibility */
      @media (prefers-color-scheme: dark) {
        .cls-2 {
          fill: #f3f4f6;
        }
      }
    </style>
  </defs>

  <path class="cls-1" d="M769.9,706.27c-19.2-40.08-22.8-56.85-23.33-100.85l-1.19-99.39-1.16-142.03c-.08-9.91-5.64-18.86-9.66-27.5-13.33-28.68-47.95-25.84-73.26-16.71-20.8,7.5-39.4,18.16-58.34,29.7-35.59,21.7-62.61,44.01-93.57,71.92-2.51,15.03-.61,28.71-7.96,43.59-18.28,36.99-63.28,52.26-100.17,33.35-32.07-16.44-49.62-57.77-34.03-91.58,17-42.03,63.13-59.11,104.6-36.94,33.17-29.39,67.32-56.02,104.67-79.72,26.81-17.01,55.08-29.65,86.22-35.97,16.47-3.34,32.77-3.77,49.39-2.3,20.61,1.82,39.96,9.46,55.97,22.05,11.77,9.26,19.89,20.17,26.75,33.1,8.56,16.12,12.01,32.56,12.22,50.82l.98,83.59.96,168.5c.09,15.8,3.26,29.78,8.43,44.46,15.9,45.2,50.17,80.51,93.69,100.23,26.84,12.16,54.26,17.56,83.74,17.24,21.21-.24,41.18-2.25,61.06-10.19l30.66-12.26c6.71-2.68,17.35-2.14,24.12-.32,12.1,3.25,16.81,15.44,17.75,26.2,1.38,15.83-6.49,27.04-20.28,33.4-27.65,12.74-56.02,22.53-86.78,25.09-29.41,2.44-57.76,1.9-86.73-3.69-50.44-9.73-95.27-36.16-130.05-73.47-14.38-15.42-25.57-31.25-34.7-50.29Z"/>
  
  <path class="cls-2" d="M572.22,495.5c-1.47,23.53-7.81,45.4-16.55,67.08-24.38,60.48-72.82,113.73-123.62,153.52-14.1,11.05-28.74,19.77-44.51,28.03-13.07,6.84-31.13,6.8-43.39-4.5-32.99-30.42-62.21-75.15-85.51-113.66-29.74-49.15-61.76-112.61-66.27-170.35-3.48-44.62,2.73-82.23,21.78-122.64,22.62-47.96,58.92-86.68,106.01-110.96,6.76-3.48,12.8-7.04,19.92-9.9,22.08-8.87,44.76-15.22,68.68-17.88,14.74-1.64,58.95.45,73.38,3.59,26.52,5.78,51.26,15.52,74.96,28.4,4.31,2.34,8.06,4.71,11.34,8.32-17.42-6.98-33.24-13.29-51.16-17.44-43.32-10.02-87.39-5.32-127.27,13.83-43.48,20.88-76.73,54.95-96.96,98.68-18.8,40.64-23.99,91.61-12.05,135.09,6.76,24.6,19.58,45.05,37.39,62.97,19.82,19.94,42.59,35.38,69.41,44.05,30.14,9.75,71.53,9.71,101.33-2.3,20.11-8.08,38.45-19.84,54.41-34.66,12.08-11.23,19.35-24.71,28.67-39.27Z"/>
  <path class="cls-2" d="M445,822.58c-24.63,4.63-45.74-10.39-59.43-29.19-4.73-6.5-7.04-15.89-2.59-22.97,3.29-5.23,8.97-9.45,14.57-12.62,45.5-25.68,84.64-58.91,118.05-99.18,24.17-29.14,44.37-60.56,57.99-95.98,19.36-50.37,25.67-110.11,7.8-161.49-1.2-3.44-1.76-7.31-2.06-11.12,21.75-17.61,44.63-31.71,69.33-44.21,3.41-1.73,6.75-3.77,10.99-2.59,5.13,15.11,11.16,29.69,13.07,45.83,3.33,28.09,3.84,56.02.78,84.15-3.18,29.21-12.54,56.37-24.91,82.89-33.88,72.63-92.41,154.6-144.24,215.69-11.43,13.47-22.76,25.49-35.8,37.15-6.7,5.99-14.47,11.91-23.55,13.62Z"/>
  <path class="cls-2" d="M374.85,300.34c-27.17,12.7-50.08,30.98-66.16,55.82-7.26,11.22-11.02,23.13-16.45,35.33,1.36-14.44,5.02-27.28,9.42-40.59,9.28-28.05,25.01-52.13,46.25-72.42s44.62-33.65,71.97-42.58c18.14-5.93,35.77-8.52,54.98-7.18,9.56.66,19.03-.21,28.67,1.6,28.48,5.35,55.28,16.36,79.82,32.65-21.36,12.43-39.82,25.82-59.13,39.5l-11.05,7.83c-42.95-24.59-91.93-31.66-138.32-9.97Z"/>
</svg>